<svg xmlns="http://www.w3.org/2000/svg" xmlns:xlink="http://www.w3.org/1999/xlink" width="500" zoomAndPan="magnify" viewBox="0 0 375 374.999991" height="500" preserveAspectRatio="xMidYMid meet" version="1.0"><defs><clipPath id="15db3752ba"><path d="M 51.394531 51.394531 L 323.605469 51.394531 L 323.605469 323.605469 L 51.394531 323.605469 Z M 51.394531 51.394531 " clip-rule="nonzero"/></clipPath><clipPath id="30e93a12d1"><path d="M 187.5 51.394531 C 112.332031 51.394531 51.394531 112.332031 51.394531 187.5 C 51.394531 262.667969 112.332031 323.605469 187.5 323.605469 C 262.667969 323.605469 323.605469 262.667969 323.605469 187.5 C 323.605469 112.332031 262.667969 51.394531 187.5 51.394531 Z M 187.5 51.394531 " clip-rule="nonzero"/></clipPath></defs><g clip-path="url(#15db3752ba)"><g clip-path="url(#30e93a12d1)"><path fill="#ffffff" d="M 51.394531 51.394531 L 323.605469 51.394531 L 323.605469 323.605469 L 51.394531 323.605469 Z M 51.394531 51.394531 " fill-opacity="1" fill-rule="nonzero"/></g></g><path fill="#ff0000" d="M 375.011719 187.507812 C 375.011719 190.578125 374.9375 193.644531 374.785156 196.707031 C 374.636719 199.773438 374.410156 202.832031 374.109375 205.886719 C 373.808594 208.941406 373.433594 211.984375 372.980469 215.019531 C 372.53125 218.054688 372.007812 221.078125 371.410156 224.089844 C 370.808594 227.097656 370.136719 230.089844 369.390625 233.066406 C 368.648438 236.042969 367.828125 239 366.9375 241.9375 C 366.046875 244.875 365.085938 247.785156 364.050781 250.675781 C 363.015625 253.566406 361.914062 256.425781 360.738281 259.261719 C 359.5625 262.097656 358.320312 264.902344 357.007812 267.675781 C 355.695312 270.449219 354.316406 273.191406 352.871094 275.898438 C 351.425781 278.601562 349.914062 281.273438 348.335938 283.902344 C 346.757812 286.535156 345.117188 289.128906 343.410156 291.679688 C 341.707031 294.230469 339.941406 296.738281 338.113281 299.203125 C 336.285156 301.667969 334.398438 304.085938 332.449219 306.457031 C 330.503906 308.832031 328.5 311.152344 326.4375 313.425781 C 324.378906 315.703125 322.261719 317.921875 320.09375 320.09375 C 317.921875 322.261719 315.703125 324.378906 313.425781 326.4375 C 311.152344 328.5 308.832031 330.503906 306.460938 332.449219 C 304.085938 334.398438 301.667969 336.285156 299.203125 338.113281 C 296.738281 339.941406 294.230469 341.707031 291.679688 343.410156 C 289.128906 345.117188 286.535156 346.757812 283.902344 348.335938 C 281.273438 349.914062 278.601562 351.425781 275.898438 352.871094 C 273.191406 354.316406 270.449219 355.695312 267.675781 357.007812 C 264.902344 358.320312 262.097656 359.5625 259.261719 360.738281 C 256.425781 361.914062 253.566406 363.015625 250.675781 364.050781 C 247.785156 365.085938 244.875 366.046875 241.9375 366.9375 C 239 367.828125 236.042969 368.648438 233.066406 369.390625 C 230.089844 370.136719 227.097656 370.808594 224.089844 371.410156 C 221.078125 372.007812 218.054688 372.53125 215.019531 372.980469 C 211.984375 373.433594 208.941406 373.808594 205.886719 374.109375 C 202.832031 374.410156 199.773438 374.636719 196.707031 374.785156 C 193.644531 374.9375 190.578125 375.011719 187.507812 375.011719 C 184.441406 375.011719 181.371094 374.9375 178.308594 374.785156 C 175.242188 374.636719 172.183594 374.410156 169.128906 374.109375 C 166.074219 373.808594 163.03125 373.433594 159.996094 372.980469 C 156.960938 372.53125 153.9375 372.007812 150.929688 371.410156 C 147.917969 370.808594 144.925781 370.136719 141.949219 369.390625 C 138.972656 368.648438 136.015625 367.828125 133.078125 366.9375 C 130.140625 366.046875 127.230469 365.085938 124.339844 364.050781 C 121.449219 363.015625 118.589844 361.914062 115.753906 360.738281 C 112.917969 359.5625 110.113281 358.320312 107.339844 357.007812 C 104.566406 355.695312 101.824219 354.316406 99.121094 352.871094 C 96.414062 351.425781 93.746094 349.914062 91.113281 348.335938 C 88.480469 346.757812 85.886719 345.117188 83.335938 343.410156 C 80.785156 341.707031 78.277344 339.941406 75.8125 338.113281 C 73.347656 336.285156 70.929688 334.398438 68.558594 332.449219 C 66.183594 330.503906 63.863281 328.5 61.589844 326.4375 C 59.316406 324.378906 57.09375 322.261719 54.921875 320.09375 C 52.753906 317.921875 50.636719 315.703125 48.578125 313.425781 C 46.515625 311.152344 44.511719 308.832031 42.566406 306.460938 C 40.621094 304.085938 38.730469 301.667969 36.902344 299.203125 C 35.074219 296.738281 33.308594 294.230469 31.605469 291.679688 C 29.898438 289.128906 28.257812 286.535156 26.679688 283.902344 C 25.105469 281.273438 23.589844 278.601562 22.144531 275.898438 C 20.699219 273.191406 19.320312 270.449219 18.007812 267.675781 C 16.695312 264.902344 15.453125 262.097656 14.277344 259.261719 C 13.101562 256.425781 12 253.566406 10.964844 250.675781 C 9.933594 247.785156 8.96875 244.875 8.078125 241.9375 C 7.1875 239 6.371094 236.042969 5.625 233.066406 C 4.878906 230.089844 4.207031 227.097656 3.609375 224.089844 C 3.007812 221.078125 2.484375 218.054688 2.035156 215.019531 C 1.585938 211.984375 1.207031 208.941406 0.90625 205.886719 C 0.605469 202.832031 0.382812 199.773438 0.230469 196.707031 C 0.0820312 193.644531 0.00390625 190.578125 0.00390625 187.507812 C 0.00390625 184.441406 0.0820312 181.371094 0.230469 178.308594 C 0.382812 175.242188 0.605469 172.183594 0.90625 169.128906 C 1.207031 166.074219 1.585938 163.03125 2.035156 159.996094 C 2.484375 156.960938 3.007812 153.9375 3.609375 150.929688 C 4.207031 147.917969 4.878906 144.925781 5.625 141.949219 C 6.371094 138.972656 7.1875 136.015625 8.078125 133.078125 C 8.96875 130.140625 9.933594 127.230469 10.964844 124.339844 C 12 121.449219 13.101562 118.589844 14.277344 115.753906 C 15.453125 112.917969 16.695312 110.113281 18.007812 107.339844 C 19.320312 104.566406 20.699219 101.824219 22.144531 99.121094 C 23.589844 96.414062 25.105469 93.746094 26.679688 91.113281 C 28.257812 88.480469 29.898438 85.886719 31.605469 83.335938 C 33.308594 80.785156 35.074219 78.277344 36.902344 75.8125 C 38.730469 73.347656 40.621094 70.929688 42.566406 68.558594 C 44.511719 66.183594 46.515625 63.863281 48.578125 61.589844 C 50.636719 59.316406 52.753906 57.09375 54.921875 54.921875 C 57.09375 52.753906 59.316406 50.636719 61.589844 48.578125 C 63.863281 46.515625 66.183594 44.511719 68.558594 42.566406 C 70.929688 40.621094 73.347656 38.730469 75.8125 36.902344 C 78.277344 35.074219 80.785156 33.308594 83.335938 31.605469 C 85.886719 29.898438 88.480469 28.257812 91.113281 26.679688 C 93.746094 25.105469 96.414062 23.589844 99.121094 22.144531 C 101.824219 20.699219 104.566406 19.320312 107.339844 18.007812 C 110.113281 16.695312 112.917969 15.453125 115.753906 14.277344 C 118.589844 13.101562 121.449219 12 124.339844 10.964844 C 127.230469 9.933594 130.140625 8.96875 133.078125 8.078125 C 136.015625 7.1875 138.972656 6.371094 141.949219 5.625 C 144.925781 4.878906 147.917969 4.207031 150.929688 3.609375 C 153.9375 3.007812 156.960938 2.484375 159.996094 2.035156 C 163.03125 1.585938 166.074219 1.207031 169.128906 0.90625 C 172.183594 0.605469 175.242188 0.382812 178.308594 0.230469 C 181.371094 0.0820312 184.441406 0.00390625 187.507812 0.00390625 C 190.578125 0.00390625 193.644531 0.0820312 196.707031 0.230469 C 199.773438 0.382812 202.832031 0.605469 205.886719 0.90625 C 208.941406 1.207031 211.984375 1.585938 215.019531 2.035156 C 218.054688 2.484375 221.078125 3.007812 224.089844 3.609375 C 227.097656 4.207031 230.089844 4.878906 233.066406 5.625 C 236.042969 6.371094 239 7.1875 241.9375 8.078125 C 244.875 8.96875 247.785156 9.933594 250.675781 10.964844 C 253.566406 12 256.425781 13.101562 259.261719 14.277344 C 262.097656 15.453125 264.902344 16.695312 267.675781 18.007812 C 270.449219 19.320312 273.191406 20.699219 275.898438 22.144531 C 278.601562 23.589844 281.273438 25.105469 283.902344 26.679688 C 286.535156 28.257812 289.128906 29.898438 291.679688 31.605469 C 294.230469 33.308594 296.738281 35.074219 299.203125 36.902344 C 301.667969 38.730469 304.085938 40.621094 306.457031 42.566406 C 308.832031 44.511719 311.152344 46.515625 313.425781 48.578125 C 315.703125 50.636719 317.921875 52.753906 320.09375 54.921875 C 322.261719 57.09375 324.378906 59.316406 326.4375 61.589844 C 328.5 63.863281 330.503906 66.183594 332.449219 68.558594 C 334.398438 70.929688 336.285156 73.347656 338.113281 75.8125 C 339.941406 78.277344 341.707031 80.785156 343.410156 83.335938 C 345.117188 85.886719 346.757812 88.480469 348.335938 91.113281 C 349.914062 93.746094 351.425781 96.414062 352.871094 99.121094 C 354.316406 101.824219 355.695312 104.566406 357.007812 107.339844 C 358.320312 110.113281 359.5625 112.917969 360.738281 115.753906 C 361.914062 118.589844 363.015625 121.449219 364.050781 124.339844 C 365.085938 127.230469 366.046875 130.140625 366.9375 133.078125 C 367.828125 136.015625 368.648438 138.972656 369.390625 141.949219 C 370.136719 144.925781 370.808594 147.917969 371.410156 150.929688 C 372.007812 153.9375 372.53125 156.960938 372.980469 159.996094 C 373.433594 163.03125 373.808594 166.074219 374.109375 169.128906 C 374.410156 172.183594 374.636719 175.242188 374.785156 178.308594 C 374.9375 181.371094 375.011719 184.441406 375.011719 187.507812 Z M 375.011719 187.507812 " fill-opacity="1" fill-rule="nonzero"/><path fill="#e8e8e8" d="M 277.886719 160.945312 L 162.570312 94.363281 C 142.113281 82.558594 116.558594 97.308594 116.558594 120.929688 L 116.558594 254.085938 C 116.558594 277.699219 142.121094 292.457031 162.570312 280.652344 L 277.886719 214.074219 C 298.335938 202.265625 298.335938 172.75 277.886719 160.945312 Z M 277.886719 160.945312 " fill-opacity="1" fill-rule="nonzero"/></svg>